<svg width="1001" height="201" viewBox="0 0 1001 201" fill="none" xmlns="http://www.w3.org/2000/svg">
<path d="M253.169 198.541C250.527 198.541 249.207 197.661 249.207 195.9C249.207 194.139 250.439 192.995 252.904 192.466L256.866 191.674C260.388 190.97 263.029 189.297 264.789 186.656C266.55 183.839 268.047 179.965 269.279 175.035L310.217 9.96593C310.569 8.20519 311.097 7.06071 311.801 6.53249C312.682 6.00427 313.474 5.74016 314.178 5.74016C315.059 5.74016 315.851 6.00427 316.555 6.53249C317.436 7.06071 318.052 8.20519 318.404 9.96593L360.133 177.412C361.366 182.342 362.775 185.776 364.359 187.712C365.944 189.649 368.409 190.97 371.754 191.674L375.716 192.466C378.181 192.995 379.414 194.139 379.414 195.9C379.414 197.661 378.093 198.541 375.452 198.541H330.289C327.824 198.541 326.591 197.573 326.591 195.636C326.591 193.699 328.088 192.643 331.081 192.466L336.099 191.938C339.093 191.586 340.941 190.618 341.646 189.033C342.526 187.448 342.526 184.719 341.646 180.846L331.609 139.908C330.553 135.331 327.648 133.042 322.894 133.042H295.162C290.584 133.042 287.679 135.331 286.447 139.908L277.467 175.299C274.826 185.335 277.467 190.882 285.39 191.938L289.352 192.466C292.345 192.995 293.842 194.051 293.842 195.636C293.842 197.573 292.609 198.541 290.144 198.541H253.169ZM294.37 125.118H323.422C326.239 125.118 327.384 123.622 326.856 120.628L309.952 49.8467H308.632L290.936 120.628C290.408 123.622 291.553 125.118 294.37 125.118ZM417.767 200.918C413.366 200.918 409.14 199.95 405.09 198.013C401.04 196.076 397.695 192.995 395.054 188.769C392.413 184.543 391.092 178.909 391.092 171.866V79.9553C391.092 76.786 390.564 74.585 389.508 73.3525C388.627 72.12 386.954 71.4157 384.489 71.2396L380 70.7114C377.006 70.3593 375.51 69.2148 375.51 67.278C375.51 64.989 377.182 63.8445 380.528 63.8445H405.09C407.731 63.8445 409.052 65.1651 409.052 67.8062V166.32C409.052 174.419 410.548 180.229 413.542 183.751C416.711 187.096 421.025 188.769 426.483 188.769C431.941 188.769 436.783 187.272 441.009 184.279C445.235 181.11 448.58 176.972 451.045 171.866C453.686 166.584 455.007 160.861 455.007 154.699V79.9553C455.007 76.786 454.479 74.585 453.422 73.3525C452.542 72.12 450.869 71.4157 448.404 71.2396L443.914 70.7114C440.921 70.3593 439.424 69.2148 439.424 67.278C439.424 64.989 441.097 63.8445 444.443 63.8445H469.005C471.646 63.8445 472.967 65.1651 472.967 67.8062V170.281C472.967 173.45 473.407 175.651 474.287 176.884C475.344 177.94 477.104 178.645 479.569 178.997L485.116 179.789C487.405 179.965 488.549 180.846 488.549 182.43C488.549 184.015 487.14 185.071 484.323 185.6C478.865 186.304 474.463 187.712 471.118 189.825C467.948 191.938 465.131 194.491 462.666 197.485C461.082 199.069 459.761 199.862 458.705 199.862C457.12 199.862 456.328 198.805 456.328 196.692V184.543C456.328 183.135 455.799 182.342 454.743 182.166C453.863 181.814 452.894 182.166 451.838 183.223C445.323 189.737 439.512 194.315 434.406 196.956C429.476 199.597 423.93 200.918 417.767 200.918ZM533.211 80.7476C540.43 68.4224 549.145 62.2599 559.358 62.2599C565.168 62.2599 569.482 64.0206 572.299 67.5421C575.116 70.8875 576.525 74.6731 576.525 78.8988C576.525 82.2442 575.644 84.9734 573.884 87.0863C572.299 89.1992 569.746 90.2556 566.224 90.2556C563.407 90.2556 561.294 89.6393 559.886 88.4068C558.653 86.9982 557.597 85.4136 556.716 83.6528C556.012 81.8921 555.132 80.3955 554.075 79.163C553.019 77.7544 551.258 77.0501 548.793 77.0501C545.624 77.0501 542.631 78.9869 539.813 82.8605C536.996 86.5581 534.619 91.5762 532.682 97.9148C530.922 104.253 530.041 111.472 530.041 119.572V180.846C530.041 184.543 530.569 187.184 531.626 188.769C532.858 190.354 535.323 191.322 539.021 191.674L546.152 192.466C548.089 192.819 549.057 193.787 549.057 195.372C549.057 197.485 547.737 198.541 545.096 198.541H500.461C497.82 198.541 496.499 197.573 496.499 195.636C496.499 194.051 497.644 192.995 499.933 192.466L503.102 191.938C506.8 191.234 509.177 190.178 510.233 188.769C511.465 187.184 512.082 184.543 512.082 180.846V92.1044C512.082 88.935 511.554 86.8222 510.497 85.7657C509.617 84.5332 507.944 83.7409 505.479 83.3887L499.933 82.5964C497.644 82.4203 496.499 81.4519 496.499 79.6912C496.499 78.2826 497.908 77.3142 500.725 76.786C506.183 75.9056 510.321 74.497 513.138 72.5602C516.131 70.6234 519.213 68.2464 522.382 65.4292C523.967 63.8445 525.287 63.0522 526.344 63.0522C527.928 63.0522 528.721 64.1086 528.721 66.2215V80.4835C528.721 81.716 529.249 82.5084 530.305 82.8605C531.362 83.0366 532.33 82.3323 533.211 80.7476ZM603.67 200.918C596.275 200.918 590.201 198.629 585.447 194.051C580.693 189.297 578.316 183.047 578.316 175.299C578.316 167.728 580.693 160.597 585.447 153.906C590.201 147.039 596.715 140.877 604.991 135.419C613.266 129.96 622.686 125.558 633.251 122.213C635.54 121.509 636.684 120.012 636.684 117.723V93.689C636.684 85.2375 635.364 79.251 632.723 75.7295C630.081 72.032 626.472 70.1832 621.894 70.1832C617.492 70.1832 613.443 72.208 609.745 76.2577C606.223 80.1314 603.67 86.7341 602.086 96.066C601.205 101.7 599.269 105.838 596.275 108.479C593.458 110.944 590.553 112.177 587.56 112.177C582.63 112.177 580.165 109.712 580.165 104.782C580.165 99.6756 581.573 94.6575 584.39 89.7274C587.384 84.6212 591.257 80.0433 596.011 75.9936C600.765 71.7678 605.959 68.4224 611.594 65.9574C617.228 63.4924 622.862 62.2599 628.497 62.2599C645.928 62.2599 654.644 72.3841 654.644 92.6326V173.45C654.644 180.846 656.493 184.543 660.19 184.543C662.479 184.543 664.592 183.047 666.529 180.053C668.466 176.884 669.434 171.602 669.434 164.207C669.434 161.389 670.578 159.981 672.867 159.981C674.98 159.981 676.037 161.477 676.037 164.471C676.037 177.324 673.748 186.656 669.17 192.466C664.768 198.101 659.75 200.918 654.116 200.918C649.89 200.918 646.544 199.245 644.079 195.9C641.614 192.378 639.942 188.241 639.061 183.487C638.885 181.726 638.093 180.846 636.684 180.846C635.452 180.67 634.219 181.462 632.987 183.223C628.761 189.033 624.447 193.435 620.045 196.428C615.643 199.421 610.185 200.918 603.67 200.918ZM610.801 188.769C615.379 188.769 619.605 187.184 623.479 184.015C627.352 180.67 630.522 176.268 632.987 170.809C635.452 165.351 636.684 159.189 636.684 152.322V133.042C636.684 129.696 634.835 128.728 631.138 130.136C620.397 134.01 612.034 139.38 606.047 146.247C600.237 152.938 597.332 161.037 597.332 170.545C597.332 182.694 601.822 188.769 610.801 188.769ZM725.007 200.918C717.259 200.918 710.216 198.365 703.878 193.259C697.715 187.977 692.785 180.493 689.088 170.809C685.39 161.125 683.541 149.592 683.541 136.211C683.541 121.245 685.742 108.215 690.144 97.1225C694.722 86.0298 700.884 77.4902 708.632 71.5037C716.379 65.3412 725.007 62.2599 734.515 62.2599C742.614 62.2599 748.953 63.8445 753.531 67.0139C755.291 68.2464 756.172 70.1832 756.172 72.8243L756.7 105.046C756.7 107.687 755.643 109.007 753.531 109.007C751.594 109.007 750.361 107.863 749.833 105.574C747.368 95.89 744.991 88.4068 742.702 83.1246C740.413 77.8424 738.036 74.2329 735.571 72.2961C733.106 70.1832 730.377 69.1267 727.384 69.1267C723.862 69.1267 720.165 71.1516 716.291 75.2013C712.593 79.251 709.424 85.8538 706.783 95.0096C704.318 103.989 703.085 115.874 703.085 130.665C703.085 149.504 705.462 163.678 710.216 173.186C715.146 182.694 721.485 187.448 729.232 187.448C735.395 187.448 740.501 184.895 744.551 179.789C748.777 174.683 752.386 165.439 755.379 152.058C755.908 150.121 756.964 149.152 758.549 149.152C760.662 149.152 761.454 150.913 760.926 154.435C758.989 166.76 756.26 176.356 752.738 183.223C749.393 189.913 745.343 194.579 740.589 197.22C736.011 199.685 730.817 200.918 725.007 200.918ZM772.247 198.541C770.134 198.541 769.078 197.573 769.078 195.636C769.078 193.875 770.046 192.819 771.983 192.466L775.681 191.938C779.378 191.41 782.107 190.354 783.868 188.769C785.629 187.184 786.509 184.543 786.509 180.846V29.5101C786.509 26.3408 785.981 24.1399 784.925 22.9074C784.044 21.6748 782.372 20.9705 779.907 20.7945L773.832 20.0021C771.895 19.65 770.927 18.5936 770.927 16.8328C770.927 15.0721 771.895 14.0156 773.832 13.6635C778.762 12.607 782.988 11.3745 786.509 9.96593C790.031 8.55734 792.936 7.14875 795.225 5.74016C798.042 3.97943 800.155 3.09906 801.564 3.09906C803.5 3.09906 804.469 4.50765 804.469 7.32482V180.846C804.469 184.543 804.997 187.184 806.053 188.769C807.286 190.178 809.751 191.146 813.449 191.674L819.523 192.466C821.46 192.819 822.428 193.875 822.428 195.636C822.428 197.573 821.372 198.541 819.259 198.541H772.247ZM875.707 200.918C867.255 200.918 859.684 198.101 852.993 192.466C846.302 186.832 840.932 178.909 836.882 168.696C833.009 158.308 831.072 146.335 831.072 132.777C831.072 118.868 833.097 106.63 837.146 96.066C841.196 85.5016 846.742 77.2261 853.785 71.2396C860.828 65.2531 868.664 62.2599 877.291 62.2599C887.68 62.2599 896.043 66.5737 902.382 75.2013C908.896 83.6528 912.154 97.4746 912.154 116.667C912.154 122.477 909.953 125.382 905.551 125.382H855.37C851.849 125.382 850.088 127.407 850.088 131.457C850.088 150.121 852.817 164.119 858.275 173.45C863.733 182.782 870.688 187.448 879.14 187.448C885.831 187.448 891.289 185.071 895.515 180.317C899.741 175.563 903.174 167.552 905.815 156.283C906.343 154.346 907.488 153.378 909.249 153.378C911.361 153.378 912.154 155.139 911.626 158.66C908.808 174.331 904.319 185.335 898.156 191.674C891.993 197.837 884.51 200.918 875.707 200.918ZM854.578 118.78H881.253C889.704 118.78 893.93 114.378 893.93 105.574C893.93 94.1292 892.522 85.1495 889.704 78.6347C886.887 72.12 882.661 68.8626 877.027 68.8626C870.16 68.8626 864.35 72.8243 859.596 80.7476C855.018 88.6709 852.025 99.9397 850.616 114.554C850.264 117.371 851.584 118.78 854.578 118.78ZM953.479 200.918C949.429 200.918 945.115 200.39 940.537 199.333C935.96 198.453 932.262 197.308 929.445 195.9C927.86 195.02 927.068 193.523 927.068 191.41L926.275 161.83C926.275 158.836 927.42 157.34 929.709 157.34C931.646 157.34 932.966 158.748 933.671 161.566C936.664 174.067 940.273 182.606 944.499 187.184C948.901 191.762 954.183 194.051 960.346 194.051C965.452 194.051 969.678 192.114 973.023 188.241C976.368 184.191 978.041 178.645 978.041 171.602C978.041 164.559 976.104 158.308 972.231 152.85C968.357 147.392 961.842 141.405 952.687 134.89C943.531 128.728 936.84 122.565 932.614 116.403C928.388 110.064 926.275 103.197 926.275 95.8019C926.275 85.7657 929.797 77.6663 936.84 71.5037C943.883 65.3412 953.215 62.2599 964.836 62.2599C968.357 62.2599 971.791 62.7 975.136 63.5804C978.481 64.2847 981.475 65.5172 984.116 67.278C985.7 68.3344 986.493 69.743 986.493 71.5037L987.021 100.556C987.021 103.197 985.965 104.518 983.852 104.518C982.619 104.518 981.739 104.165 981.211 103.461C980.682 102.581 980.242 101.524 979.89 100.292C976.368 88.847 972.847 80.9237 969.326 76.5218C965.804 71.9439 961.49 69.655 956.384 69.655C951.806 69.655 948.021 71.2396 945.027 74.409C942.034 77.5783 940.537 81.5399 940.537 86.2939C940.537 92.4565 942.386 97.8268 946.084 102.405C949.781 106.983 956.472 112.617 966.156 119.308C974.96 125.646 981.563 132.513 985.965 139.908C990.542 147.127 992.831 155.051 992.831 163.678C992.831 174.947 989.222 184.015 982.003 190.882C974.784 197.573 965.276 200.918 953.479 200.918Z" fill="black"/>
<path fill-rule="evenodd" clip-rule="evenodd" d="M9.20428 120.213C-6.13885 143.945 0.662334 175.623 24.3951 190.966C48.1279 206.309 79.8052 199.508 95.1483 175.775L152.805 84.9575C168.148 61.2247 161.347 29.5474 137.614 14.2043C113.881 -1.13882 82.2039 5.66228 66.8608 29.3951L9.20428 120.213ZM109.431 100.392C132.85 100.392 151.835 81.4074 151.835 57.9884C151.835 34.5695 132.85 15.5847 109.431 15.5847C86.0125 15.5847 67.0277 34.5695 67.0277 57.9884C67.0277 81.4074 86.0125 100.392 109.431 100.392Z" fill="black"/>
<circle cx="170.904" cy="156.705" r="42.4038" fill="black"/>
</svg>
