<svg width="1000" height="201" viewBox="0 0 1000 201" fill="none" xmlns="http://www.w3.org/2000/svg">
<path d="M252.669 198.167C250.027 198.167 248.707 197.287 248.707 195.526C248.707 193.765 249.939 192.621 252.404 192.093L256.366 191.3C259.888 190.596 262.529 188.923 264.289 186.282C266.05 183.465 267.547 179.591 268.779 174.661L309.717 9.59215C310.069 7.83141 310.597 6.68693 311.301 6.15871C312.182 5.63049 312.974 5.36639 313.678 5.36639C314.559 5.36639 315.351 5.63049 316.055 6.15871C316.936 6.68693 317.552 7.83141 317.904 9.59215L359.633 177.038C360.866 181.968 362.275 185.402 363.859 187.339C365.444 189.276 367.909 190.596 371.254 191.3L375.216 192.093C377.681 192.621 378.914 193.765 378.914 195.526C378.914 197.287 377.593 198.167 374.952 198.167H329.789C327.324 198.167 326.091 197.199 326.091 195.262C326.091 193.325 327.588 192.269 330.581 192.093L335.599 191.564C338.593 191.212 340.441 190.244 341.146 188.659C342.026 187.075 342.026 184.345 341.146 180.472L331.109 139.535C330.053 134.957 327.148 132.668 322.394 132.668H294.662C290.084 132.668 287.179 134.957 285.947 139.535L276.967 174.925C274.326 184.962 276.967 190.508 284.89 191.564L288.852 192.093C291.845 192.621 293.342 193.677 293.342 195.262C293.342 197.199 292.109 198.167 289.644 198.167H252.669ZM293.87 124.744H322.922C325.739 124.744 326.884 123.248 326.356 120.255L309.452 49.4729H308.132L290.436 120.255C289.908 123.248 291.053 124.744 293.87 124.744ZM417.267 200.544C412.866 200.544 408.64 199.576 404.59 197.639C400.54 195.702 397.195 192.621 394.554 188.395C391.913 184.169 390.592 178.535 390.592 171.492V79.5815C390.592 76.4122 390.064 74.2113 389.008 72.9787C388.127 71.7462 386.454 71.0419 383.989 70.8658L379.5 70.3376C376.506 69.9855 375.01 68.841 375.01 66.9042C375.01 64.6152 376.682 63.4707 380.028 63.4707H404.59C407.231 63.4707 408.552 64.7913 408.552 67.4324V165.946C408.552 174.045 410.048 179.856 413.042 183.377C416.211 186.722 420.525 188.395 425.983 188.395C431.441 188.395 436.283 186.899 440.509 183.905C444.735 180.736 448.08 176.598 450.545 171.492C453.186 166.21 454.507 160.487 454.507 154.325V79.5815C454.507 76.4122 453.979 74.2113 452.922 72.9787C452.042 71.7462 450.369 71.0419 447.904 70.8658L443.414 70.3376C440.421 69.9855 438.924 68.841 438.924 66.9042C438.924 64.6152 440.597 63.4707 443.943 63.4707H468.505C471.146 63.4707 472.467 64.7913 472.467 67.4324V169.907C472.467 173.077 472.907 175.278 473.787 176.51C474.844 177.567 476.604 178.271 479.069 178.623L484.616 179.415C486.905 179.591 488.049 180.472 488.049 182.056C488.049 183.641 486.64 184.698 483.823 185.226C478.365 185.93 473.963 187.339 470.618 189.452C467.448 191.564 464.631 194.118 462.166 197.111C460.582 198.695 459.261 199.488 458.205 199.488C456.62 199.488 455.828 198.431 455.828 196.318V184.169C455.828 182.761 455.299 181.968 454.243 181.792C453.363 181.44 452.394 181.792 451.338 182.849C444.823 189.364 439.012 193.941 433.906 196.583C428.976 199.224 423.43 200.544 417.267 200.544ZM532.711 80.3738C539.93 68.0487 548.645 61.8861 558.858 61.8861C564.668 61.8861 568.982 63.6468 571.799 67.1683C574.616 70.5137 576.025 74.2993 576.025 78.5251C576.025 81.8705 575.144 84.5996 573.384 86.7125C571.799 88.8254 569.246 89.8818 565.724 89.8818C562.907 89.8818 560.794 89.2656 559.386 88.033C558.153 86.6245 557.097 85.0398 556.216 83.2791C555.512 81.5183 554.632 80.0217 553.575 78.7892C552.519 77.3806 550.758 76.6763 548.293 76.6763C545.124 76.6763 542.131 78.6131 539.313 82.4867C536.496 86.1843 534.119 91.2024 532.182 97.541C530.422 103.88 529.541 111.099 529.541 119.198V180.472C529.541 184.169 530.069 186.81 531.126 188.395C532.358 189.98 534.823 190.948 538.521 191.3L545.652 192.093C547.589 192.445 548.557 193.413 548.557 194.998C548.557 197.111 547.237 198.167 544.596 198.167H499.961C497.32 198.167 495.999 197.199 495.999 195.262C495.999 193.677 497.144 192.621 499.433 192.093L502.602 191.564C506.3 190.86 508.677 189.804 509.733 188.395C510.965 186.81 511.582 184.169 511.582 180.472V91.7306C511.582 88.5613 511.054 86.4484 509.997 85.3919C509.117 84.1594 507.444 83.3671 504.979 83.0149L499.433 82.2226C497.144 82.0465 495.999 81.0781 495.999 79.3174C495.999 77.9088 497.408 76.9404 500.225 76.4122C505.683 75.5318 509.821 74.1232 512.638 72.1864C515.631 70.2496 518.713 67.8726 521.882 65.0554C523.467 63.4708 524.787 62.6784 525.844 62.6784C527.428 62.6784 528.221 63.7349 528.221 65.8477V80.1097C528.221 81.3422 528.749 82.1346 529.805 82.4867C530.862 82.6628 531.83 81.9585 532.711 80.3738ZM603.17 200.544C595.775 200.544 589.701 198.255 584.947 193.677C580.193 188.923 577.816 182.673 577.816 174.925C577.816 167.354 580.193 160.223 584.947 153.533C589.701 146.666 596.215 140.503 604.491 135.045C612.766 129.586 622.186 125.185 632.751 121.839C635.04 121.135 636.184 119.638 636.184 117.349V93.3153C636.184 84.8637 634.864 78.8772 632.223 75.3557C629.581 71.6582 625.972 69.8094 621.394 69.8094C616.992 69.8094 612.943 71.8343 609.245 75.884C605.723 79.7576 603.17 86.3603 601.586 95.6923C600.705 101.327 598.769 105.464 595.775 108.105C592.958 110.57 590.053 111.803 587.06 111.803C582.13 111.803 579.665 109.338 579.665 104.408C579.665 99.3018 581.073 94.2837 583.89 89.3536C586.884 84.2475 590.757 79.6695 595.511 75.6198C600.265 71.3941 605.459 68.0487 611.094 65.5836C616.728 63.1186 622.362 61.8861 627.997 61.8861C645.428 61.8861 654.144 72.0103 654.144 92.2588V173.077C654.144 180.472 655.993 184.169 659.69 184.169C661.979 184.169 664.092 182.673 666.029 179.679C667.966 176.51 668.934 171.228 668.934 163.833C668.934 161.016 670.078 159.607 672.367 159.607C674.48 159.607 675.537 161.104 675.537 164.097C675.537 176.95 673.248 186.282 668.67 192.093C664.268 197.727 659.25 200.544 653.616 200.544C649.39 200.544 646.044 198.872 643.579 195.526C641.114 192.005 639.442 187.867 638.561 183.113C638.385 181.352 637.593 180.472 636.184 180.472C634.952 180.296 633.719 181.088 632.487 182.849C628.261 188.659 623.947 193.061 619.545 196.054C615.143 199.048 609.685 200.544 603.17 200.544ZM610.301 188.395C614.879 188.395 619.105 186.81 622.979 183.641C626.852 180.296 630.022 175.894 632.487 170.436C634.952 164.977 636.184 158.815 636.184 151.948V132.668C636.184 129.322 634.335 128.354 630.638 129.763C619.897 133.636 611.534 139.006 605.547 145.873C599.737 152.564 596.832 160.664 596.832 170.171C596.832 182.321 601.322 188.395 610.301 188.395ZM724.507 200.544C716.759 200.544 709.716 197.991 703.378 192.885C697.215 187.603 692.285 180.12 688.588 170.436C684.89 160.752 683.041 149.219 683.041 135.837C683.041 120.871 685.242 107.841 689.644 96.7487C694.222 85.6561 700.384 77.1165 708.132 71.13C715.879 64.9674 724.507 61.8861 734.015 61.8861C742.114 61.8861 748.453 63.4707 753.031 66.6401C754.791 67.8726 755.672 69.8094 755.672 72.4505L756.2 104.672C756.2 107.313 755.143 108.634 753.031 108.634C751.094 108.634 749.861 107.489 749.333 105.2C746.868 95.5162 744.491 88.0331 742.202 82.7508C739.913 77.4686 737.536 73.8591 735.071 71.9223C732.606 69.8094 729.877 68.753 726.884 68.753C723.362 68.753 719.665 70.7778 715.791 74.8275C712.093 78.8772 708.924 85.48 706.283 94.6358C703.818 103.616 702.585 115.501 702.585 130.291C702.585 149.131 704.962 163.305 709.716 172.813C714.646 182.321 720.985 187.075 728.732 187.075C734.895 187.075 740.001 184.522 744.051 179.415C748.277 174.309 751.886 165.065 754.879 151.684C755.408 149.747 756.464 148.779 758.049 148.779C760.162 148.779 760.954 150.539 760.426 154.061C758.489 166.386 755.76 175.982 752.238 182.849C748.893 189.54 744.843 194.206 740.089 196.847C735.511 199.312 730.317 200.544 724.507 200.544ZM771.747 198.167C769.634 198.167 768.578 197.199 768.578 195.262C768.578 193.501 769.546 192.445 771.483 192.093L775.181 191.564C778.878 191.036 781.607 189.98 783.368 188.395C785.129 186.81 786.009 184.169 786.009 180.472V29.1363C786.009 25.967 785.481 23.7661 784.425 22.5336C783.544 21.3011 781.872 20.5968 779.407 20.4207L773.332 19.6284C771.395 19.2762 770.427 18.2198 770.427 16.459C770.427 14.6983 771.395 13.6419 773.332 13.2897C778.262 12.2333 782.488 11.0007 786.009 9.59215C789.531 8.18356 792.436 6.77497 794.725 5.36639C797.542 3.60565 799.655 2.72528 801.064 2.72528C803 2.72528 803.969 4.13387 803.969 6.95104V180.472C803.969 184.169 804.497 186.81 805.553 188.395C806.786 189.804 809.251 190.772 812.949 191.3L819.023 192.093C820.96 192.445 821.928 193.501 821.928 195.262C821.928 197.199 820.872 198.167 818.759 198.167H771.747ZM875.207 200.544C866.755 200.544 859.184 197.727 852.493 192.093C845.802 186.458 840.432 178.535 836.382 168.323C832.509 157.934 830.572 145.961 830.572 132.404C830.572 118.494 832.597 106.257 836.646 95.6923C840.696 85.1278 846.242 76.8524 853.285 70.8658C860.328 64.8793 868.164 61.8861 876.791 61.8861C887.18 61.8861 895.543 66.1999 901.882 74.8275C908.396 83.2791 911.654 97.1009 911.654 116.293C911.654 122.103 909.453 125.009 905.051 125.009H854.87C851.349 125.009 849.588 127.033 849.588 131.083C849.588 149.747 852.317 163.745 857.775 173.077C863.233 182.409 870.188 187.075 878.64 187.075C885.331 187.075 890.789 184.698 895.015 179.944C899.241 175.19 902.674 167.178 905.315 155.91C905.843 153.973 906.988 153.004 908.749 153.004C910.861 153.004 911.654 154.765 911.126 158.287C908.308 173.957 903.819 184.962 897.656 191.3C891.493 197.463 884.01 200.544 875.207 200.544ZM854.078 118.406H880.753C889.204 118.406 893.43 114.004 893.43 105.2C893.43 93.7554 892.022 84.7757 889.204 78.2609C886.387 71.7462 882.161 68.4889 876.527 68.4889C869.66 68.4889 863.85 72.4505 859.096 80.3738C854.518 88.2972 851.525 99.5659 850.116 114.18C849.764 116.997 851.084 118.406 854.078 118.406ZM952.979 200.544C948.929 200.544 944.615 200.016 940.037 198.96C935.46 198.079 931.762 196.935 928.945 195.526C927.36 194.646 926.568 193.149 926.568 191.036L925.775 161.456C925.775 158.463 926.92 156.966 929.209 156.966C931.146 156.966 932.466 158.375 933.171 161.192C936.164 173.693 939.773 182.233 943.999 186.81C948.401 191.388 953.683 193.677 959.846 193.677C964.952 193.677 969.178 191.741 972.523 187.867C975.868 183.817 977.541 178.271 977.541 171.228C977.541 164.185 975.604 157.934 971.731 152.476C967.857 147.018 961.342 141.031 952.187 134.517C943.031 128.354 936.34 122.191 932.114 116.029C927.888 109.69 925.775 102.823 925.775 95.4281C925.775 85.3919 929.297 77.2925 936.34 71.13C943.383 64.9674 952.715 61.8861 964.336 61.8861C967.857 61.8861 971.291 62.3263 974.636 63.2066C977.981 63.9109 980.975 65.1435 983.616 66.9042C985.2 67.9606 985.993 69.3692 985.993 71.13L986.521 100.182C986.521 102.823 985.465 104.144 983.352 104.144C982.119 104.144 981.239 103.792 980.711 103.087C980.182 102.207 979.742 101.151 979.39 99.918C975.868 88.4732 972.347 80.5499 968.826 76.1481C965.304 71.5701 960.99 69.2812 955.884 69.2812C951.306 69.2812 947.521 70.8658 944.527 74.0352C941.534 77.2045 940.037 81.1662 940.037 85.9202C940.037 92.0827 941.886 97.453 945.584 102.031C949.281 106.609 955.972 112.243 965.656 118.934C974.46 125.273 981.063 132.14 985.465 139.535C990.042 146.754 992.331 154.677 992.331 163.305C992.331 174.573 988.722 183.641 981.503 190.508C974.284 197.199 964.776 200.544 952.979 200.544Z" fill="black"/>
<path fill-rule="evenodd" clip-rule="evenodd" d="M8.70428 119.839C-6.63885 143.572 0.162334 175.249 23.8951 190.592C47.6279 205.935 79.3052 199.134 94.6483 175.401L152.305 84.5837C167.648 60.851 160.847 29.1736 137.114 13.8305C113.381 -1.5126 81.7039 5.2885 66.3608 29.0213L8.70428 119.839ZM108.931 100.018C132.35 100.018 151.335 81.0336 151.335 57.6146C151.335 34.1957 132.35 15.2109 108.931 15.2109C85.5125 15.2109 66.5277 34.1957 66.5277 57.6146C66.5277 81.0336 85.5125 100.018 108.931 100.018Z" fill="black"/>
<circle cx="170.404" cy="156.331" r="42.4038" fill="#F02C6A"/>
</svg>
