<svg width="220" height="201" viewBox="0 0 220 201" fill="none" xmlns="http://www.w3.org/2000/svg">
<path fill-rule="evenodd" clip-rule="evenodd" d="M8.4703 118.689C-7.37762 143.203 -0.352682 175.922 24.1609 191.77C48.6745 207.618 81.394 200.593 97.2419 176.079L156.795 82.274C172.643 57.7604 165.618 25.0409 141.105 9.19297C116.591 -6.65494 83.8716 0.36992 68.0237 24.8835L8.4703 118.689ZM111.994 98.2163C136.184 98.2163 155.793 78.6069 155.793 54.4175C155.793 30.2281 136.184 10.6187 111.994 10.6187C87.8047 10.6187 68.1953 30.2281 68.1953 54.4175C68.1953 78.6069 87.8047 98.2163 111.994 98.2163Z" fill="white"/>
<circle cx="175.799" cy="155.799" r="43.7988" fill="white"/>
</svg>
